<?xml version="1.0" standalone="no"?>
<!DOCTYPE svg PUBLIC "-//W3C//DTD SVG 20010904//EN"
 "http://www.w3.org/TR/2001/REC-SVG-20010904/DTD/svg10.dtd">
<svg version="1.0" xmlns="http://www.w3.org/2000/svg"
 width="1024.000000pt" height="1024.000000pt" viewBox="0 0 1024.000000 1024.000000"
 preserveAspectRatio="xMidYMid meet">
<metadata>
Created by potrace 1.14, written by Peter Selinger 2001-2017
</metadata>
<g transform="translate(0.000000,1024.000000) scale(0.100000,-0.100000)"
fill="#000000" stroke="none">
<path d="M0 5120 l0 -5120 5120 0 5120 0 0 5120 0 5120 -5120 0 -5120 0 0
-5120z m6928 3692 c13 -9 59 -112 142 -314 35 -87 49 -109 69 -116 14 -5 108
-44 208 -86 186 -79 202 -91 188 -135 -6 -20 -48 -40 -281 -136 l-141 -58 -44
-106 c-82 -201 -128 -305 -141 -313 -20 -12 -45 -10 -61 6 -7 8 -51 104 -97
214 l-83 199 -199 83 c-110 46 -206 90 -214 97 -8 8 -14 23 -14 33 0 10 6 25
14 33 8 7 104 51 214 97 l199 83 83 199 c46 110 90 206 97 214 16 16 41 18 61
6z m1529 -1484 l131 -263 261 -130 c144 -71 261 -132 261 -135 0 -3 -117 -64
-261 -135 l-261 -130 -131 -262 c-73 -145 -134 -263 -137 -263 -3 0 -64 118
-137 263 l-131 262 -261 130 c-144 71 -261 132 -261 135 0 3 117 64 261 135
l261 130 131 263 c73 144 134 262 137 262 3 0 64 -118 137 -262z m-2933 -142
c172 -115 317 -236 481 -400 258 -259 433 -502 585 -810 183 -374 263 -696
264 -1061 0 -188 -16 -329 -54 -474 l-19 -74 33 -41 c151 -185 278 -466 328
-720 37 -192 24 -445 -23 -454 -10 -2 -29 21 -55 65 -46 81 -170 209 -236 245
-118 65 -150 72 -323 72 -146 0 -168 -3 -250 -28 -49 -15 -171 -68 -269 -117
-238 -118 -409 -173 -661 -211 -143 -21 -480 -16 -643 10 -628 101 -1210 403
-1684 876 -158 157 -356 403 -433 535 -10 17 -2 13 80 -44 171 -120 450 -266
655 -343 612 -230 1234 -226 1725 12 164 80 159 70 69 141 -349 273 -819 729
-1204 1170 -281 322 -728 874 -830 1025 -73 109 -80 113 147 -84 381 -331 970
-780 1393 -1063 289 -192 286 -192 117 -5 -263 292 -584 685 -849 1042 -125
169 -284 393 -300 425 -6 11 63 -52 153 -140 531 -519 1164 -1041 1754 -1449
161 -112 334 -221 340 -214 11 12 67 213 85 303 31 154 39 460 16 635 -51 388
-199 767 -442 1138 -40 61 -71 112 -67 112 3 0 56 -33 117 -74z"/>
</g>
</svg>
